<svg width="2560" height="100" viewBox="0 0 2560 100" fill="none" xmlns="http://www.w3.org/2000/svg">
<rect width="2560" height="100" />
<rect x="618" width="45" height="100" />
<path d="M11.5317 45.4626V55.0149" stroke="#71717A" stroke-miterlimit="10"/>
<path d="M16.1436 43.5522V56.9254" stroke="#71717A" stroke-miterlimit="10"/>
<path d="M21.9043 40.6865V59.791" stroke="#71717A" stroke-miterlimit="10"/>
<path d="M26.5156 39.2537V60.7462" stroke="#71717A" stroke-miterlimit="10"/>
<path d="M31.1289 34.9553V65.0449" stroke="#71717A" stroke-miterlimit="10"/>
<path d="M36.8887 37.3433V62.6567" stroke="#71717A" stroke-miterlimit="10"/>
<path d="M41.5005 40.6865V59.791" stroke="#71717A" stroke-miterlimit="10"/>
<path d="M46.1138 43.0747V57.4031" stroke="#71717A" stroke-miterlimit="10"/>
<path d="M51.8735 34.9553V65.0449" stroke="#71717A" stroke-miterlimit="10"/>
<path d="M56.4863 38.7761V61.2239" stroke="#71717A" stroke-miterlimit="10"/>
<path d="M61.0986 41.6418V58.8359" stroke="#71717A" stroke-miterlimit="10"/>
<path d="M66.8594 42.1194V58.3582" stroke="#71717A" stroke-miterlimit="10"/>
<path d="M71.4707 44.0298V56.4477" stroke="#71717A" stroke-miterlimit="10"/>
<path d="M76.084 42.5969V57.8805" stroke="#71717A" stroke-miterlimit="10"/>
<path d="M81.8442 43.5522V56.9254" stroke="#71717A" stroke-miterlimit="10"/>
<path d="M86.4556 43.5522V56.9254" stroke="#71717A" stroke-miterlimit="10"/>
<path d="M91.0688 39.7314V60.2688" stroke="#71717A" stroke-miterlimit="10"/>
<path d="M96.8281 41.1641V59.3133" stroke="#71717A" stroke-miterlimit="10"/>
<path d="M101.441 36.8657V63.1344" stroke="#71717A" stroke-miterlimit="10"/>
<path d="M106.054 34.4775V65.5223" stroke="#71717A" stroke-miterlimit="10"/>
<path d="M111.813 37.3433V62.6567" stroke="#71717A" stroke-miterlimit="10"/>
<path d="M116.426 34.9553V65.0449" stroke="#71717A" stroke-miterlimit="10"/>
<path d="M122.197 41.6418V58.8359" stroke="#71717A" stroke-miterlimit="10"/>
<path d="M126.798 44.5076V55.9703" stroke="#71717A" stroke-miterlimit="10"/>
<path d="M131.411 42.5969V57.8805" stroke="#71717A" stroke-miterlimit="10"/>
<path d="M137.183 38.7761V61.2239" stroke="#71717A" stroke-miterlimit="10"/>
<path d="M141.794 34V66"  stroke-miterlimit="10"/>
<path d="M146.396 34V66"  stroke-miterlimit="10"/>
<path d="M152.167 37.3433V62.6567" stroke="#71717A" stroke-miterlimit="10"/>
<path d="M156.78 40.6865V59.791" stroke="#71717A" stroke-miterlimit="10"/>
<path d="M161.392 44.9851V55.4926" stroke="#71717A" stroke-miterlimit="10"/>
<path d="M167.152 45.4626V55.0149" stroke="#71717A" stroke-miterlimit="10"/>
<path d="M171.765 43.5522V56.9254" stroke="#71717A" stroke-miterlimit="10"/>
<path d="M176.377 40.6865V59.791" stroke="#71717A" stroke-miterlimit="10"/>
<path d="M182.138 39.2537V60.7462" stroke="#71717A" stroke-miterlimit="10"/>
<path d="M186.749 34.9553V65.0449" stroke="#71717A" stroke-miterlimit="10"/>
<path d="M191.362 37.3433V62.6567" stroke="#71717A" stroke-miterlimit="10"/>
<path d="M197.123 40.6865V59.791" stroke="#71717A" stroke-miterlimit="10"/>
<path d="M201.735 43.0747V57.4031" stroke="#71717A" stroke-miterlimit="10"/>
<path d="M206.347 34.9553V65.0449" stroke="#71717A" stroke-miterlimit="10"/>
<path d="M212.107 38.7761V61.2239" stroke="#71717A" stroke-miterlimit="10"/>
<path d="M216.72 41.6418V58.8359" stroke="#71717A" stroke-miterlimit="10"/>
<path d="M221.332 42.1194V58.3582" stroke="#71717A" stroke-miterlimit="10"/>
<path d="M227.092 44.0298V56.4477" stroke="#71717A" stroke-miterlimit="10"/>
<path d="M231.705 42.5969V57.8805" stroke="#71717A" stroke-miterlimit="10"/>
<path d="M236.317 43.5522V56.9254" stroke="#71717A" stroke-miterlimit="10"/>
<path d="M242.077 43.5522V56.9254" stroke="#71717A" stroke-miterlimit="10"/>
<path d="M246.69 39.7314V60.2688" stroke="#71717A" stroke-miterlimit="10"/>
<path d="M251.302 41.1641V59.3133" stroke="#71717A" stroke-miterlimit="10"/>
<path d="M257.062 36.8657V63.1344" stroke="#71717A" stroke-miterlimit="10"/>
<path d="M261.675 34.4775V65.5223" stroke="#71717A" stroke-miterlimit="10"/>
<path d="M266.287 37.3433V62.6567" stroke="#71717A" stroke-miterlimit="10"/>
<path d="M272.047 34.9553V65.0449" stroke="#71717A" stroke-miterlimit="10"/>
<path d="M276.66 41.6418V58.8359" stroke="#71717A" stroke-miterlimit="10"/>
<path d="M281.272 44.5076V55.9703" stroke="#71717A" stroke-miterlimit="10"/>
<path d="M287.043 42.5969V57.8805" stroke="#71717A" stroke-miterlimit="10"/>
<path d="M291.645 38.7761V61.2239" stroke="#71717A" stroke-miterlimit="10"/>
<path d="M296.257 34V66" stroke="#71717A" stroke-miterlimit="10"/>
<path d="M302.028 34V66" stroke="#71717A" stroke-miterlimit="10"/>
<path d="M306.641 37.3433V62.6567" stroke="#71717A" stroke-miterlimit="10"/>
<path d="M311.242 40.6865V59.791" stroke="#71717A" stroke-miterlimit="10"/>
<path d="M317.013 44.9851V55.4926" stroke="#71717A" stroke-miterlimit="10"/>
<path d="M321.625 45.4626V55.0149" stroke="#22D3EE" stroke-miterlimit="10"/>
<path d="M327.386 43.5522V56.9254" stroke="#22D3EE" stroke-miterlimit="10"/>
<path d="M331.998 40.6865V59.791" stroke="#22D3EE" stroke-miterlimit="10"/>
<path d="M336.611 39.2537V60.7462" stroke="#22D3EE" stroke-miterlimit="10"/>
<path d="M342.371 34.9553V65.0449" stroke="#22D3EE" stroke-miterlimit="10"/>
<path d="M346.983 37.3433V62.6567" stroke="#22D3EE" stroke-miterlimit="10"/>
<path d="M351.596 40.6865V59.791" stroke="#22D3EE" stroke-miterlimit="10"/>
<path d="M357.355 43.0747V57.4031" stroke="#22D3EE" stroke-miterlimit="10"/>
<path d="M361.968 34.9553V65.0449" stroke="#22D3EE" stroke-miterlimit="10"/>
<path d="M366.581 38.7761V61.2239" stroke="#22D3EE" stroke-miterlimit="10"/>
<path d="M372.341 41.6418V58.8359" stroke="#22D3EE" stroke-miterlimit="10"/>
<path d="M376.953 42.1194V58.3582" stroke="#22D3EE" stroke-miterlimit="10"/>
<path d="M381.565 44.0298V56.4477" stroke="#22D3EE" stroke-miterlimit="10"/>
<path d="M387.326 42.5969V57.8805" stroke="#22D3EE" stroke-miterlimit="10"/>
<path d="M391.938 43.5522V56.9254" stroke="#22D3EE" stroke-miterlimit="10"/>
<path d="M396.55 43.5522V56.9254" stroke="#22D3EE" stroke-miterlimit="10"/>
<path d="M402.311 39.7314V60.2688" stroke="#22D3EE" stroke-miterlimit="10"/>
<path d="M406.923 36.3882V63.6121" stroke="#22D3EE" stroke-miterlimit="10"/>
<path d="M411.535 36.8657V63.1344" stroke="#22D3EE" stroke-miterlimit="10"/>
<path d="M417.296 39.7314V60.2688" stroke="#22D3EE" stroke-miterlimit="10"/>
<path d="M421.908 45.9404V54.5374" stroke="#22D3EE" stroke-miterlimit="10"/>
<path d="M0 50.2388H433.439"  stroke-miterlimit="10"/>
<path d="M444.971 45.4626V55.0149" stroke="#22D3EE" stroke-miterlimit="10"/>
<path d="M449.583 43.5522V56.9254" stroke="#22D3EE" stroke-miterlimit="10"/>
<path d="M455.343 40.6865V59.791" stroke="#22D3EE" stroke-miterlimit="10"/>
<path d="M459.955 39.2537V60.7462" stroke="#22D3EE" stroke-miterlimit="10"/>
<path d="M464.568 34.9553V65.0449" stroke="#22D3EE" stroke-miterlimit="10"/>
<path d="M470.328 37.3433V62.6567" stroke="#22D3EE" stroke-miterlimit="10"/>
<path d="M474.939 40.6865V59.791" stroke="#22D3EE" stroke-miterlimit="10"/>
<path d="M479.553 43.0747V57.4031" stroke="#22D3EE" stroke-miterlimit="10"/>
<path d="M485.312 34.9553V65.0449" stroke="#22D3EE" stroke-miterlimit="10"/>
<path d="M489.925 38.7761V61.2239" stroke="#22D3EE" stroke-miterlimit="10"/>
<path d="M494.538 41.6418V58.8359" stroke="#22D3EE" stroke-miterlimit="10"/>
<path d="M500.298 42.1194V58.3582" stroke="#22D3EE" stroke-miterlimit="10"/>
<path d="M504.91 44.0298V56.4477" stroke="#22D3EE" stroke-miterlimit="10"/>
<path d="M509.523 42.5969V57.8805" stroke="#22D3EE" stroke-miterlimit="10"/>
<path d="M515.283 43.5522V56.9254" stroke="#22D3EE" stroke-miterlimit="10"/>
<path d="M519.895 43.5522V56.9254" stroke="#22D3EE" stroke-miterlimit="10"/>
<path d="M524.508 39.7314V60.2688" stroke="#22D3EE" stroke-miterlimit="10"/>
<path d="M530.267 41.1641V59.3133" stroke="#22D3EE" stroke-miterlimit="10"/>
<path d="M534.88 36.8657V63.1344" stroke="#22D3EE" stroke-miterlimit="10"/>
<path d="M539.493 34.4775V65.5223" stroke="#22D3EE" stroke-miterlimit="10"/>
<path d="M545.252 37.3433V62.6567" stroke="#22D3EE" stroke-miterlimit="10"/>
<path d="M549.865 34.9553V65.0449" stroke="#22D3EE" stroke-miterlimit="10"/>
<path d="M555.636 41.6418V58.8359" stroke="#22D3EE" stroke-miterlimit="10"/>
<path d="M560.237 44.5076V55.9703" stroke="#22D3EE" stroke-miterlimit="10"/>
<path d="M564.85 42.5969V57.8805" stroke="#22D3EE" stroke-miterlimit="10"/>
<path d="M570.622 38.7761V61.2239" stroke="#22D3EE" stroke-miterlimit="10"/>
<path d="M575.233 34V66" stroke="#22D3EE" stroke-miterlimit="10"/>
<path d="M579.835 34V66" stroke="#22D3EE" stroke-miterlimit="10"/>
<path d="M585.606 37.3433V62.6567" stroke="#22D3EE" stroke-miterlimit="10"/>
<path d="M590.219 40.6865V59.791" stroke="#22D3EE" stroke-miterlimit="10"/>
<path d="M594.831 44.9851V55.4926" stroke="#22D3EE" stroke-miterlimit="10"/>
<path d="M600.591 45.4626V55.0149" stroke="#22D3EE" stroke-miterlimit="10"/>
<path d="M605.204 43.5522V56.9254" stroke="#22D3EE" stroke-miterlimit="10"/>
<path d="M609.816 40.6865V59.791" stroke="#22D3EE" stroke-miterlimit="10"/>
<path d="M615.577 39.2537V60.7462" stroke="#22D3EE" stroke-miterlimit="10"/>
<path d="M620.188 34.9553V65.0449" stroke="#22D3EE" stroke-miterlimit="10"/>
<path d="M624.801 37.3433V62.6567" stroke="#22D3EE" stroke-miterlimit="10"/>
<path d="M630.562 40.6865V59.791" stroke="#22D3EE" stroke-miterlimit="10"/>
<path d="M635.174 43.0747V57.4031" stroke="#22D3EE" stroke-miterlimit="10"/>
<path d="M639.786 34.9553V65.0449" stroke="#22D3EE" stroke-miterlimit="10"/>
<path d="M645.546 38.7761V61.2239" stroke="#22D3EE" stroke-miterlimit="10"/>
<path d="M650.159 41.6418V58.8359" stroke="#22D3EE" stroke-miterlimit="10"/>
<path d="M654.771 42.1194V58.3582" stroke="#22D3EE" stroke-miterlimit="10"/>
<path d="M660.531 44.0298V56.4477" stroke="#22D3EE" stroke-miterlimit="10"/>
<path d="M665.144 42.5969V57.8805" stroke="#22D3EE" stroke-miterlimit="10"/>
<path d="M669.756 43.5522V56.9254" stroke="#22D3EE" stroke-miterlimit="10"/>
<path d="M675.516 43.5522V56.9254" stroke="#22D3EE" stroke-miterlimit="10"/>
<path d="M680.129 39.7314V60.2688" stroke="#22D3EE" stroke-miterlimit="10"/>
<path d="M684.741 41.1641V59.3133" stroke="#22D3EE" stroke-miterlimit="10"/>
<path d="M690.501 36.8657V63.1344" stroke="#22D3EE" stroke-miterlimit="10"/>
<path d="M695.114 34.4775V65.5223" stroke="#22D3EE" stroke-miterlimit="10"/>
<path d="M699.726 37.3433V62.6567" stroke="#22D3EE" stroke-miterlimit="10"/>
<path d="M705.486 34.9553V65.0449" stroke="#22D3EE" stroke-miterlimit="10"/>
<path d="M710.099 41.6418V58.8359" stroke="#22D3EE" stroke-miterlimit="10"/>
<path d="M714.711 44.5076V55.9703" stroke="#22D3EE" stroke-miterlimit="10"/>
<path d="M720.482 42.5969V57.8805" stroke="#22D3EE" stroke-miterlimit="10"/>
<path d="M725.084 38.7761V61.2239" stroke="#22D3EE" stroke-miterlimit="10"/>
<path d="M729.696 34V66" stroke="#22D3EE" stroke-miterlimit="10"/>
<path d="M735.467 34V66" stroke="#22D3EE" stroke-miterlimit="10"/>
<path d="M740.08 37.3433V62.6567" stroke="#22D3EE" stroke-miterlimit="10"/>
<path d="M744.681 40.6865V59.791" stroke="#22D3EE" stroke-miterlimit="10"/>
<path d="M750.452 44.9851V55.4926" stroke="#22D3EE" stroke-miterlimit="10"/>
<path d="M755.064 45.4626V55.0149" stroke="#22D3EE" stroke-miterlimit="10"/>
<path d="M760.825 43.5522V56.9254" stroke="#22D3EE" stroke-miterlimit="10"/>
<path d="M765.437 40.6865V59.791" stroke="#22D3EE" stroke-miterlimit="10"/>
<path d="M770.05 39.2537V60.7462" stroke="#22D3EE" stroke-miterlimit="10"/>
<path d="M775.81 34.9553V65.0449" stroke="#22D3EE" stroke-miterlimit="10"/>
<path d="M780.422 37.3433V62.6567" stroke="#22D3EE" stroke-miterlimit="10"/>
<path d="M785.035 40.6865V59.791" stroke="#22D3EE" stroke-miterlimit="10"/>
<path d="M790.794 43.0747V57.4031" stroke="#22D3EE" stroke-miterlimit="10"/>
<path d="M795.407 34.9553V65.0449" stroke="#22D3EE" stroke-miterlimit="10"/>
<path d="M800.02 38.7761V61.2239" stroke="#22D3EE" stroke-miterlimit="10"/>
<path d="M805.78 41.6418V58.8359" stroke="#22D3EE" stroke-miterlimit="10"/>
<path d="M810.392 42.1194V58.3582" stroke="#22D3EE" stroke-miterlimit="10"/>
<path d="M815.004 44.0298V56.4477" stroke="#22D3EE" stroke-miterlimit="10"/>
<path d="M820.765 42.5969V57.8805" stroke="#22D3EE" stroke-miterlimit="10"/>
<path d="M433.439 50.2388H826.243" stroke-miterlimit="10"/>
<path d="M837.775 45.4626V55.0149" stroke="#22D3EE" stroke-miterlimit="10"/>
<path d="M842.387 43.5522V56.9254" stroke="#22D3EE" stroke-miterlimit="10"/>
<path d="M848.147 40.6865V59.791" stroke="#22D3EE" stroke-miterlimit="10"/>
<path d="M852.759 39.2537V60.7462" stroke="#22D3EE" stroke-miterlimit="10"/>
<path d="M857.372 34.9553V65.0449" stroke="#22D3EE" stroke-miterlimit="10"/>
<path d="M863.132 37.3433V62.6567" stroke="#22D3EE" stroke-miterlimit="10"/>
<path d="M867.744 40.6865V59.791" stroke="#22D3EE" stroke-miterlimit="10"/>
<path d="M872.357 43.0747V57.4031" stroke="#22D3EE" stroke-miterlimit="10"/>
<path d="M878.117 34.9553V65.0449" stroke="#22D3EE" stroke-miterlimit="10"/>
<path d="M882.729 38.7761V61.2239" stroke="#22D3EE" stroke-miterlimit="10"/>
<path d="M887.342 41.6418V58.8359" stroke="#22D3EE" stroke-miterlimit="10"/>
<path d="M893.103 42.1194V58.3582" stroke="#22D3EE" stroke-miterlimit="10"/>
<path d="M897.714 44.0298V56.4477" stroke="#22D3EE" stroke-miterlimit="10"/>
<path d="M902.327 42.5969V57.8805" stroke="#22D3EE" stroke-miterlimit="10"/>
<path d="M908.087 43.5522V56.9254" stroke="#22D3EE" stroke-miterlimit="10"/>
<path d="M912.699 43.5522V56.9254" stroke="#22D3EE" stroke-miterlimit="10"/>
<path d="M917.312 39.7314V60.2688" stroke="#22D3EE" stroke-miterlimit="10"/>
<path d="M923.071 41.1641V59.3133" stroke="#22D3EE" stroke-miterlimit="10"/>
<path d="M927.685 36.8657V63.1344" stroke="#22D3EE" stroke-miterlimit="10"/>
<path d="M932.297 34.4775V65.5223" stroke="#22D3EE" stroke-miterlimit="10"/>
<path d="M938.057 37.3433V62.6567" stroke="#22D3EE" stroke-miterlimit="10"/>
<path d="M942.669 34.9553V65.0449" stroke="#22D3EE" stroke-miterlimit="10"/>
<path d="M948.44 41.6418V58.8359" stroke="#22D3EE" stroke-miterlimit="10"/>
<path d="M953.042 44.5076V55.9703" stroke="#22D3EE" stroke-miterlimit="10"/>
<path d="M957.654 42.5969V57.8805" stroke="#22D3EE" stroke-miterlimit="10"/>
<path d="M963.426 38.7761V61.2239" stroke="#22D3EE" stroke-miterlimit="10"/>
<path d="M968.037 34V66" stroke="#22D3EE" stroke-miterlimit="10"/>
<path d="M972.64 34V66" stroke="#22D3EE" stroke-miterlimit="10"/>
<path d="M978.41 37.3433V62.6567" stroke="#22D3EE" stroke-miterlimit="10"/>
<path d="M983.023 40.6865V59.791" stroke="#22D3EE" stroke-miterlimit="10"/>
<path d="M987.635 44.9851V55.4926" stroke="#22D3EE" stroke-miterlimit="10"/>
<path d="M993.395 45.4626V55.0149" stroke="#22D3EE" stroke-miterlimit="10"/>
<path d="M998.008 43.5522V56.9254" stroke="#22D3EE" stroke-miterlimit="10"/>
<path d="M1002.62 40.6865V59.791" stroke="#22D3EE" stroke-miterlimit="10"/>
<path d="M1008.38 39.2537V60.7462" stroke="#22D3EE" stroke-miterlimit="10"/>
<path d="M1012.99 34.9553V65.0449" stroke="#22D3EE" stroke-miterlimit="10"/>
<path d="M1017.61 37.3433V62.6567" stroke="#22D3EE" stroke-miterlimit="10"/>
<path d="M1023.37 40.6865V59.791" stroke="#22D3EE" stroke-miterlimit="10"/>
<path d="M1027.98 43.0747V57.4031" stroke="#22D3EE" stroke-miterlimit="10"/>
<path d="M1032.59 34.9553V65.0449" stroke="#22D3EE" stroke-miterlimit="10"/>
<path d="M1038.35 38.7761V61.2239" stroke="#22D3EE" stroke-miterlimit="10"/>
<path d="M1042.96 41.6418V58.8359" stroke="#22D3EE" stroke-miterlimit="10"/>
<path d="M1047.58 42.1194V58.3582" stroke="#22D3EE" stroke-miterlimit="10"/>
<path d="M1053.33 44.0298V56.4477" stroke="#22D3EE" stroke-miterlimit="10"/>
<path d="M1057.95 42.5969V57.8805" stroke="#22D3EE" stroke-miterlimit="10"/>
<path d="M1062.56 43.5522V56.9254" stroke="#22D3EE" stroke-miterlimit="10"/>
<path d="M1068.32 43.5522V56.9254" stroke="#22D3EE" stroke-miterlimit="10"/>
<path d="M1072.93 39.7314V60.2688" stroke="#22D3EE" stroke-miterlimit="10"/>
<path d="M1077.54 41.1641V59.3133" stroke="#22D3EE" stroke-miterlimit="10"/>
<path d="M1083.31 36.8657V63.1344" stroke="#22D3EE" stroke-miterlimit="10"/>
<path d="M1087.92 34.4775V65.5223" stroke="#22D3EE" stroke-miterlimit="10"/>
<path d="M1092.53 37.3433V62.6567" stroke="#22D3EE" stroke-miterlimit="10"/>
<path d="M1098.29 34.9553V65.0449" stroke="#22D3EE" stroke-miterlimit="10"/>
<path d="M1102.9 41.6418V58.8359" stroke="#22D3EE" stroke-miterlimit="10"/>
<path d="M1107.52 44.5076V55.9703" stroke="#22D3EE" stroke-miterlimit="10"/>
<path d="M1113.29 42.5969V57.8805" stroke="#22D3EE" stroke-miterlimit="10"/>
<path d="M1117.89 38.7761V61.2239" stroke="#22D3EE" stroke-miterlimit="10"/>
<path d="M1122.5 34V66" stroke="#22D3EE" stroke-miterlimit="10"/>
<path d="M1128.27 34V66" stroke="#22D3EE" stroke-miterlimit="10"/>
<path d="M1132.88 37.3433V62.6567" stroke="#22D3EE" stroke-miterlimit="10"/>
<path d="M1137.48 40.6865V59.791" stroke="#22D3EE" stroke-miterlimit="10"/>
<path d="M1143.26 44.9851V55.4926" stroke="#22D3EE" stroke-miterlimit="10"/>
<path d="M1147.87 45.4626V55.0149" stroke="#22D3EE" stroke-miterlimit="10"/>
<path d="M1153.63 43.5522V56.9254" stroke="#22D3EE" stroke-miterlimit="10"/>
<path d="M1158.24 40.6865V59.791" stroke="#22D3EE" stroke-miterlimit="10"/>
<path d="M1162.85 39.2537V60.7462" stroke="#22D3EE" stroke-miterlimit="10"/>
<path d="M1168.61 34.9553V65.0449" stroke="#22D3EE" stroke-miterlimit="10"/>
<path d="M1173.23 37.3433V62.6567" stroke="#22D3EE" stroke-miterlimit="10"/>
<path d="M1177.84 40.6865V59.791" stroke="#22D3EE" stroke-miterlimit="10"/>
<path d="M1183.6 43.0747V57.4031" stroke="#22D3EE" stroke-miterlimit="10"/>
<path d="M1188.21 34.9553V65.0449" stroke="#22D3EE" stroke-miterlimit="10"/>
<path d="M1192.82 38.7761V61.2239" stroke="#22D3EE" stroke-miterlimit="10"/>
<path d="M1198.58 41.6418V58.8359" stroke="#22D3EE" stroke-miterlimit="10"/>
<path d="M1203.2 42.1194V58.3582" stroke="#22D3EE" stroke-miterlimit="10"/>
<path d="M1207.81 44.0298V56.4477" stroke="#22D3EE" stroke-miterlimit="10"/>
<path d="M1213.57 42.5969V57.8805" stroke="#22D3EE" stroke-miterlimit="10"/>
<path d="M826.243 50.2388H1177.79" stroke-miterlimit="10"/>
<path d="M91.131 7.18554C88.4011 6.72787 85.5993 6.72787 82.8693 7.18554C81.872 7.35274 81.0777 8.11841 80.8777 9.11118C79.9616 13.6593 79.9116 18.3393 80.7304 22.906L81.0637 24.7652C81.1665 25.3385 81.8654 25.5676 82.2877 25.1665L86.3114 21.344C86.6974 20.9773 87.3029 20.9773 87.6889 21.344L91.7126 25.1665C92.1349 25.5676 92.8338 25.3385 92.9366 24.7652L93.2699 22.906C94.0887 18.3394 94.0387 13.6593 93.1226 9.11118C92.9226 8.11841 92.1284 7.35274 91.131 7.18554Z" fill="#06B6D4"/>
<path d="M87.1739 13.33H85.6339V12.22H86.2439C86.5439 12.22 86.7839 12.18 86.9639 12.1C87.1439 12.0133 87.2739 11.8767 87.3539 11.69C87.4406 11.4967 87.4839 11.2333 87.4839 10.9H88.6939V18H87.1739V13.33Z" fill="black"/>
<path d="M305.131 7.18554C302.401 6.72787 299.599 6.72787 296.869 7.18554C295.872 7.35274 295.078 8.11841 294.878 9.11118C293.962 13.6593 293.912 18.3393 294.73 22.906L295.064 24.7652C295.167 25.3385 295.865 25.5676 296.288 25.1665L300.311 21.344C300.697 20.9773 301.303 20.9773 301.689 21.344L305.713 25.1665C306.135 25.5676 306.834 25.3385 306.937 24.7652L307.27 22.906C308.089 18.3394 308.039 13.6593 307.123 9.11118C306.923 8.11841 306.128 7.35274 305.131 7.18554Z" fill="#06B6D4"/>
<path d="M298.813 18C298.813 17.3867 298.893 16.86 299.053 16.42C299.22 15.9733 299.487 15.5767 299.853 15.23C300.22 14.8833 300.713 14.5433 301.333 14.21C301.68 14.03 301.943 13.8767 302.123 13.75C302.303 13.6233 302.433 13.4967 302.513 13.37C302.593 13.2367 302.633 13.08 302.633 12.9C302.633 12.64 302.547 12.43 302.373 12.27C302.2 12.1033 301.953 12.02 301.633 12.02C301.273 12.02 300.987 12.1267 300.773 12.34C300.567 12.5467 300.437 12.85 300.383 13.25L298.823 13.16C298.89 12.4 299.167 11.8067 299.653 11.38C300.14 10.9533 300.793 10.74 301.613 10.74C302.153 10.74 302.617 10.83 303.003 11.01C303.39 11.19 303.683 11.44 303.883 11.76C304.09 12.08 304.193 12.4533 304.193 12.88C304.193 13.2467 304.133 13.5567 304.013 13.81C303.893 14.0633 303.7 14.2967 303.433 14.51C303.173 14.7167 302.807 14.9467 302.333 15.2C301.78 15.4933 301.36 15.77 301.073 16.03C300.793 16.29 300.643 16.52 300.623 16.72H304.193V18H298.813Z" fill="black"/>
<path d="M519.131 7.18554C516.401 6.72787 513.599 6.72787 510.869 7.18554C509.872 7.35274 509.078 8.11841 508.878 9.11118C507.962 13.6593 507.912 18.3393 508.73 22.906L509.064 24.7652C509.167 25.3385 509.865 25.5676 510.288 25.1665L514.311 21.344C514.697 20.9773 515.303 20.9773 515.689 21.344L519.713 25.1665C520.135 25.5676 520.834 25.3385 520.937 24.7652L521.27 22.906C522.089 18.3394 522.039 13.6593 521.123 9.11118C520.923 8.11841 520.128 7.35274 519.131 7.18554Z" fill="#06B6D4"/>
<path d="M515.498 18.16C514.625 18.16 513.948 17.9633 513.468 17.57C512.988 17.17 512.732 16.62 512.698 15.92L514.248 15.86C514.282 16.2067 514.405 16.4633 514.618 16.63C514.832 16.7967 515.125 16.88 515.498 16.88C515.872 16.88 516.172 16.7967 516.398 16.63C516.632 16.4633 516.748 16.22 516.748 15.9C516.748 15.68 516.695 15.4933 516.588 15.34C516.488 15.1867 516.338 15.0733 516.138 15C515.945 14.92 515.715 14.88 515.448 14.88H514.808V13.75H515.448C515.775 13.75 516.035 13.68 516.228 13.54C516.422 13.4 516.518 13.1833 516.518 12.89C516.518 12.61 516.432 12.3967 516.258 12.25C516.092 12.0967 515.832 12.02 515.478 12.02C515.132 12.02 514.865 12.09 514.678 12.23C514.492 12.37 514.378 12.5633 514.338 12.81L512.808 12.73C512.875 12.1167 513.142 11.6333 513.608 11.28C514.075 10.92 514.698 10.74 515.478 10.74C516.312 10.74 516.952 10.9167 517.398 11.27C517.852 11.6233 518.078 12.11 518.078 12.73C518.078 13.15 517.938 13.5 517.658 13.78C517.385 14.0533 516.988 14.2367 516.468 14.33V14.16C517.055 14.2467 517.508 14.45 517.828 14.77C518.148 15.09 518.308 15.5033 518.308 16.01C518.308 16.4567 518.192 16.84 517.958 17.16C517.732 17.48 517.405 17.7267 516.978 17.9C516.558 18.0733 516.065 18.16 515.498 18.16Z" fill="black"/>
<path d="M733.131 7.18554C730.401 6.72787 727.599 6.72787 724.869 7.18554C723.872 7.35274 723.078 8.11841 722.878 9.11118C721.962 13.6593 721.912 18.3393 722.73 22.906L723.064 24.7652C723.167 25.3385 723.865 25.5676 724.288 25.1665L728.311 21.344C728.697 20.9773 729.303 20.9773 729.689 21.344L733.713 25.1665C734.135 25.5676 734.834 25.3385 734.937 24.7652L735.27 22.906C736.089 18.3394 736.039 13.6593 735.123 9.11118C734.923 8.11841 734.128 7.35274 733.131 7.18554Z" fill="#06B6D4"/>
<path d="M730.092 16.65H726.562V15.44L729.802 10.9H731.612V15.37H732.442V16.65H731.612V18H730.092V16.65ZM730.092 15.37V12.77L728.172 15.37H730.092Z" fill="black"/>
<path d="M947.131 7.18554C944.401 6.72787 941.599 6.72787 938.869 7.18554C937.872 7.35274 937.078 8.11841 936.878 9.11118C935.962 13.6593 935.912 18.3393 936.73 22.906L937.064 24.7652C937.167 25.3385 937.865 25.5676 938.288 25.1665L942.311 21.344C942.697 20.9773 943.303 20.9773 943.689 21.344L947.713 25.1665C948.135 25.5676 948.834 25.3385 948.937 24.7652L949.27 22.906C950.089 18.3394 950.039 13.6593 949.123 9.11118C948.923 8.11841 948.128 7.35274 947.131 7.18554Z" fill="#06B6D4"/>
<path d="M943.486 18.16C942.632 18.16 941.969 17.9733 941.496 17.6C941.022 17.22 940.759 16.7 940.706 16.04L942.246 15.97C942.299 16.27 942.429 16.4967 942.636 16.65C942.849 16.8033 943.132 16.88 943.486 16.88C943.872 16.88 944.176 16.77 944.396 16.55C944.622 16.33 944.736 16.0267 944.736 15.64C944.736 15.26 944.622 14.9567 944.396 14.73C944.169 14.4967 943.862 14.38 943.476 14.38C943.196 14.38 942.952 14.4433 942.746 14.57C942.539 14.69 942.392 14.85 942.306 15.05H940.786L941.276 10.9H945.806V12.18H942.566L942.306 14.25L942.136 14.1C942.309 13.84 942.546 13.6367 942.846 13.49C943.152 13.3367 943.506 13.26 943.906 13.26C944.386 13.26 944.806 13.3633 945.166 13.57C945.532 13.7767 945.812 14.06 946.006 14.42C946.199 14.78 946.296 15.1867 946.296 15.64C946.296 16.1533 946.179 16.6 945.946 16.98C945.712 17.36 945.382 17.6533 944.956 17.86C944.536 18.06 944.046 18.16 943.486 18.16Z" fill="black"/>
<path d="M1161.13 7.18554C1158.4 6.72787 1155.6 6.72787 1152.87 7.18554C1151.87 7.35274 1151.08 8.11841 1150.88 9.11118C1149.96 13.6593 1149.91 18.3393 1150.73 22.906L1151.06 24.7652C1151.17 25.3385 1151.87 25.5676 1152.29 25.1665L1156.31 21.344C1156.7 20.9773 1157.3 20.9773 1157.69 21.344L1161.71 25.1665C1162.13 25.5676 1162.83 25.3385 1162.94 24.7652L1163.27 22.906C1164.09 18.3394 1164.04 13.6593 1163.12 9.11118C1162.92 8.11841 1162.13 7.35274 1161.13 7.18554Z" fill="#06B6D4"/>
<path d="M1157.52 18.16C1156.62 18.16 1155.93 17.8767 1155.46 17.31C1154.99 16.7367 1154.76 15.9233 1154.76 14.87C1154.76 14.0567 1154.87 13.34 1155.09 12.72C1155.31 12.1 1155.64 11.6167 1156.09 11.27C1156.54 10.9167 1157.09 10.74 1157.76 10.74C1158.43 10.74 1158.98 10.9033 1159.39 11.23C1159.8 11.5567 1160.08 12.0133 1160.21 12.6L1158.8 12.7C1158.71 12.4667 1158.59 12.29 1158.43 12.17C1158.28 12.05 1158.05 11.99 1157.76 11.99C1157.28 11.99 1156.91 12.1967 1156.64 12.61C1156.38 13.0233 1156.24 13.6467 1156.21 14.48L1156 14.44C1156.11 14.1267 1156.33 13.8667 1156.65 13.66C1156.97 13.4467 1157.37 13.34 1157.84 13.34C1158.31 13.34 1158.73 13.4367 1159.1 13.63C1159.47 13.8233 1159.75 14.0967 1159.94 14.45C1160.14 14.7967 1160.24 15.2 1160.24 15.66C1160.24 16.1867 1160.13 16.6367 1159.9 17.01C1159.67 17.3833 1159.35 17.67 1158.94 17.87C1158.53 18.0633 1158.06 18.16 1157.52 18.16ZM1157.51 16.95C1157.88 16.95 1158.17 16.8367 1158.39 16.61C1158.62 16.3767 1158.73 16.0667 1158.73 15.68C1158.73 15.3 1158.62 14.9967 1158.4 14.77C1158.19 14.5367 1157.91 14.42 1157.56 14.42C1157.31 14.42 1157.09 14.4733 1156.9 14.58C1156.71 14.6867 1156.56 14.8333 1156.45 15.02C1156.34 15.2067 1156.29 15.4267 1156.29 15.68C1156.29 15.9267 1156.34 16.1467 1156.44 16.34C1156.54 16.5333 1156.68 16.6833 1156.87 16.79C1157.06 16.8967 1157.27 16.95 1157.51 16.95Z" fill="black"/>
<g opacity="0.07">
<line x1="167" y1="2.18557e-08" x2="167" y2="80" stroke="#71717A"/>
<line x1="407" y1="2.18557e-08" x2="407" y2="80" stroke="#71717A"/>
<line x1="647" y1="2.18557e-08" x2="647" y2="80" stroke="#71717A"/>
<line x1="887" y1="2.18557e-08" x2="887" y2="80" stroke="#71717A"/>
<line x1="1127" y1="2.18557e-08" x2="1127" y2="80" stroke="#71717A"/>
</g>
</svg>
